# xmcd CD database file
# Copyright (C) 1995-1998 Ti Kan
#
# Track frame offsets:
#	150
#	18332
#	30072
#	45555
#	56672
#	72015
#	86110
#	100397
#	115225
#	129760
#
# Disc length: 1946 seconds
#
# Revision: 1
# Processed by: cddbd v1.4b41PL1 Copyright (c) Steve Scherf et al.
# Submitted via: CDex 1.30
#
DISCID=7407980a
DTITLE=Shawn Lancaster - High Maintenance Woman
DYEAR=1997
DGENRE=Country
TTITLE0=High Maintenance Woman
TTITLE1=You Can Run
TTITLE2=The Note
TTITLE3=Fire Is Gonna Fly
TTITLE4=Lucky You, Lonely Me
TTITLE5=Drowning In Love
TTITLE6=I Saw You Look At Her
TTITLE7=I May Save Whats Left Of Me
TTITLE8=I'll Take The Money
TTITLE9=Time Machine
EXTD=\n\nYEAR: 1997  ID3G:   2
EXTT0=
EXTT1=
EXTT2=
EXTT3=
EXTT4=
EXTT5=
EXTT6=
EXTT7=
EXTT8=
EXTT9=
PLAYORDER=
